<?xml version="1.0" encoding="UTF-8" standalone="no"?>
<!DOCTYPE svg PUBLIC "-//W3C//DTD SVG 1.1//EN" "http://www.w3.org/Graphics/SVG/1.1/DTD/svg11.dtd">
<svg width="100%" height="100%" viewBox="0 0 968 24" version="1.1" xmlns="http://www.w3.org/2000/svg" xmlns:xlink="http://www.w3.org/1999/xlink" xml:space="preserve" xmlns:serif="http://www.serif.com/" style="fill-rule:evenodd;clip-rule:evenodd;stroke-linejoin:round;stroke-miterlimit:2;">
    <g transform="matrix(1,0,0,1.2,4,-82.8)">
        <rect id="Artboard2" x="-4" y="69" width="968" height="20" style="fill:none;"/>
        <clipPath id="_clip1">
            <rect id="Artboard21" serif:id="Artboard2" x="-4" y="69" width="968" height="20"/>
        </clipPath>
        <g clip-path="url(#_clip1)">
            <g transform="matrix(-1,-1.02054e-16,1.22465e-16,-0.833333,960,143.167)">
                <path d="M-0,89L7,76L21,69L939,69L953,76L960,89L964,89L964,65L-4,65L-4,89L-0,89Z" style="fill:rgb(27,0,145);"/>
                <clipPath id="_clip2">
                    <path d="M-0,89L7,76L21,69L939,69L953,76L960,89L964,89L964,65L-4,65L-4,89L-0,89Z"/>
                </clipPath>
                <g clip-path="url(#_clip2)">
                    <path d="M-0,89L7,76L21,69L939,69L953,76L960,89L964,89L956,73L940,65L20,65L4,73L-4,89L-0,89Z" style="fill:rgb(37,93,195);"/>
                </g>
            </g>
            <g transform="matrix(-1,-1.02054e-16,1.22465e-16,-0.833333,964,143.167)">
                <path d="M16.5,88L20,81L30,77L938,77L948,81L951.5,88L956,89L951,78L939,73L29,73L17,78L12,89L16.5,88Z" style="fill:rgb(66,67,103);"/>
            </g>
        </g>
    </g>
</svg>
