<?xml version="1.0" encoding="UTF-8" standalone="no"?>
<!DOCTYPE svg PUBLIC "-//W3C//DTD SVG 1.1//EN" "http://www.w3.org/Graphics/SVG/1.1/DTD/svg11.dtd">
<svg width="100%" height="100%" viewBox="0 0 960 292" version="1.1" xmlns="http://www.w3.org/2000/svg" xmlns:xlink="http://www.w3.org/1999/xlink" xml:space="preserve" xmlns:serif="http://www.serif.com/" style="fill-rule:evenodd;clip-rule:evenodd;stroke-linejoin:round;stroke-miterlimit:2;">
    <rect id="Artboard1" x="0" y="0" width="960" height="292" style="fill:none;"/>
    <clipPath id="_clip1">
        <rect id="Artboard11" serif:id="Artboard1" x="0" y="0" width="960" height="292"/>
    </clipPath>
    <g clip-path="url(#_clip1)">
        <path d="M0,0L0,38L960,278L960,0L0,0Z" style="fill:rgb(66,67,103);"/>
        <clipPath id="_clip2">
            <path d="M0,0L0,38L960,278L960,0L0,0Z"/>
        </clipPath>
        <g clip-path="url(#_clip2)">
            <rect x="956" y="0" width="4" height="280" style="fill:rgb(34,18,73);"/>
            <g transform="matrix(1,0,0,1,-956,0)">
                <rect x="956" y="0" width="4" height="280" style="fill:rgb(34,18,73);"/>
            </g>
            <g transform="matrix(1,0,0,1,-4,0)">
                <path d="M960,0L956,0L956,268L960,269L960,0Z" style="fill:rgb(110,123,144);"/>
            </g>
            <g transform="matrix(1,0,0,1,-952,-237)">
                <path d="M960,0L956,0L956,268L960,269L960,0Z" style="fill:rgb(110,123,144);"/>
            </g>
        </g>
        <g id="muno-logo.afdesign" serif:id="muno logo.afdesign" transform="matrix(0.5,0,0,0.5,491,174.14)">
            <g transform="matrix(1,0,0,1,-774,-390)">
                <clipPath id="_clip3">
                    <rect x="0" y="0" width="1548" height="780"/>
                </clipPath>
                <g clip-path="url(#_clip3)">
                    <g id="Artboard12" serif:id="Artboard1" transform="matrix(0.483871,0,0,0.507813,-24.3871,-257.461)">
                        <rect x="50.4" y="507" width="3199.2" height="1536" style="fill:rgb(66,67,103);fill-opacity:0;"/>
                        <g transform="matrix(2.06667,0,0,1.96923,-3622.07,-781.862)">
                            <path d="M1935,1112L2080,1157L2146,1225L2808,1251L2973,1250L3071,1231L3115,1203L3130,1174.5L3121,1146L3094,1131L3160,1065L3167,1019.5L3163,997.5L3145,982L3118,982L3085,989.5L3079,926L3059.5,892L3006,857L2869,855L2813,888L2701.66,868.468L2701,861L2601.44,864L2598,879L2463.88,869.908L2464,862.395L2322,850L2321,860.714L2204.94,854.653L2186.8,894L2175.8,855.892L2071,857L1935,1112Z"/>
                            <clipPath id="_clip4">
                                <path d="M1935,1112L2080,1157L2146,1225L2808,1251L2973,1250L3071,1231L3115,1203L3130,1174.5L3121,1146L3094,1131L3160,1065L3167,1019.5L3163,997.5L3145,982L3118,982L3085,989.5L3079,926L3059.5,892L3006,857L2869,855L2813,888L2701.66,868.468L2701,861L2601.44,864L2598,879L2463.88,869.908L2464,862.395L2322,850L2321,860.714L2204.94,854.653L2186.8,894L2175.8,855.892L2071,857L1935,1112Z"/>
                            </clipPath>
                            <g clip-path="url(#_clip4)">
                                <g transform="matrix(1,0,0,1,-527.4,-388)">
                                    <path d="M2503.4,1481.55L2624.4,1277L2684.4,1272L2705.4,1330L2747.4,1274L2816.4,1272L2865.4,1500L2784.4,1511L2748.4,1370L2691.4,1438L2651.4,1367L2589.4,1509L2503.4,1481.55ZM2871.4,1267L2966.4,1278L2966.4,1434L2998.4,1436L3014.4,1407L3015.4,1287L3099.4,1297L3095.4,1396L3031.4,1497L2918.4,1500L2872.4,1418L2871.4,1267ZM3094.4,1500L3159.4,1282L3193.4,1282L3234.4,1365L3247.4,1286L3313.4,1299L3278.4,1511L3235.4,1511L3182.4,1413.5L3159.4,1511L3094.4,1500ZM3405.4,1267L3515.4,1267L3568.4,1303L3582.4,1333L3584.4,1413.5L3545.4,1473.55L3470.4,1529L3428.4,1535L3381.4,1511L3342.4,1462L3335.4,1353L3354.4,1302L3405.4,1267Z" style="fill:rgb(37,93,195);"/>
                                    <clipPath id="_clip5">
                                        <path d="M2503.4,1481.55L2624.4,1277L2684.4,1272L2705.4,1330L2747.4,1274L2816.4,1272L2865.4,1500L2784.4,1511L2748.4,1370L2691.4,1438L2651.4,1367L2589.4,1509L2503.4,1481.55ZM2871.4,1267L2966.4,1278L2966.4,1434L2998.4,1436L3014.4,1407L3015.4,1287L3099.4,1297L3095.4,1396L3031.4,1497L2918.4,1500L2872.4,1418L2871.4,1267ZM3094.4,1500L3159.4,1282L3193.4,1282L3234.4,1365L3247.4,1286L3313.4,1299L3278.4,1511L3235.4,1511L3182.4,1413.5L3159.4,1511L3094.4,1500ZM3405.4,1267L3515.4,1267L3568.4,1303L3582.4,1333L3584.4,1413.5L3545.4,1473.55L3470.4,1529L3428.4,1535L3381.4,1511L3342.4,1462L3335.4,1353L3354.4,1302L3405.4,1267Z"/>
                                    </clipPath>
                                    <g clip-path="url(#_clip5)">
                                        <g transform="matrix(1,0,0,1,527.4,388)">
                                            <path d="M1936,1046L2112,1093.55L2352,1093.55L2367.42,1083.55L2529.71,1083.55L2543,1087.5L2654,1099.95L2767,1097.95L2753,1129.01L2066,1129.01L1950,1121L1936,1046Z" style="fill:rgb(27,0,145);"/>
                                        </g>
                                        <g transform="matrix(1,0,0,1,527.4,388)">
                                            <path d="M2812,1025.5L2841.61,1080.54L2887,1108.51L2955,1111.78L2981.5,1096.28L2981.5,1112.54L2999,1120L3125,1107.51L3127,1134L3011,1162L2914,1157L2846,1129.01L2795,1068L2812,1025.5Z" style="fill:rgb(27,0,145);"/>
                                        </g>
                                        <g transform="matrix(1,0,0,1,527.4,388)">
                                            <path d="M2070,899L2797,961L2966,918L3061,950.5L3065.51,988L2977,950.5L2802,997L2056,933L2070,899Z" style="fill:rgb(117,187,255);"/>
                                        </g>
                                        <g transform="matrix(1,0,0,1,527.4,388)">
                                            <path d="M2020,964L2790,1025.5L2978,988L3063,1025.5L3074,999L2978,966L2789,1008L2037,950.5L2020,964Z" style="fill:rgb(117,187,255);"/>
                                        </g>
                                        <g transform="matrix(1,0,0,1,527.4,388)">
                                            <path d="M2091,892L2148,895L2165,940L2176,939L2170,872L2091,877L2091,892Z" style="fill:rgb(117,187,255);"/>
                                        </g>
                                        <g transform="matrix(1,0,0,1,527.4,388)">
                                            <path d="M2202,872L2208,891L2277,898L2312,970L2297,872L2202,872Z" style="fill:rgb(117,187,255);"/>
                                        </g>
                                        <g transform="matrix(1,0,0,1,527.4,388)">
                                            <path d="M2337,872L2448,883L2444,950.5L2423,906L2337,885L2337,872Z" style="fill:rgb(117,187,255);"/>
                                        </g>
                                        <g transform="matrix(1,0,0,1,527.4,388)">
                                            <path d="M2476,895L2571,895L2580,958L2551,921.5L2484,906L2476,895Z" style="fill:rgb(117,187,255);"/>
                                        </g>
                                        <g transform="matrix(1,0,0,1,527.4,388)">
                                            <path d="M2611,879L2680,886L2704,963L2662,906L2613,899L2611,879Z" style="fill:rgb(117,187,255);"/>
                                        </g>
                                        <g transform="matrix(1,0,0,1,527.4,388)">
                                            <path d="M2708,895L2800,911.25L2778,997L2770,926.5L2704,903.25L2708,895Z" style="fill:rgb(117,187,255);"/>
                                        </g>
                                        <g transform="matrix(1,0,0,1,527.4,388)">
                                            <path d="M2869,882L2981.5,891.5L3032,921L3050,970L3042.66,1047.58L3073,1017L3070,918L2985,867L2892.82,865L2869,882Z" style="fill:rgb(117,187,255);"/>
                                        </g>
                                        <g transform="matrix(1,0,0,1,531.9,389)">
                                            <path d="M2920,905L2955.5,924L2977,957L2966.33,918.654L2927.82,905L2920,905Z" style="fill:rgb(117,187,255);"/>
                                        </g>
                                        <g transform="matrix(1,0,0,1,527.4,388)">
                                            <path d="M3047,1061L3126,1087L3136,1067L3050,1046L3047,1061Z" style="fill:rgb(117,187,255);"/>
                                        </g>
                                        <g transform="matrix(1,0,0,1,527.4,388)">
                                            <path d="M3057,1034L3144,1058.09L3154,1025.5L3073,1017L3057,1034Z" style="fill:rgb(117,187,255);"/>
                                        </g>
                                        <g transform="matrix(-1,2.44929e-16,2.44929e-16,1,4281.4,858.5)">
                                            <path d="M815,488L802,524.5L805,583L838,617L881,615L903,595L920.354,566.45L919,525L905.162,494.987L880,472.5L849.79,482.052L841,525L858.086,549.5L866,554L856,527L858.774,493.41L878,487L896.151,502.492L907,527L908.241,562L896,587.585L877,603L838.052,601.24L816,574L809.824,531.5L818,497.5L815,488Z"/>
                                        </g>
                                        <g transform="matrix(1,0,0,1,527.4,388)">
                                            <path d="M2977,937L2988,1008.5L2985,1074L2960,1140L2995,1118L3003,1049L2987,950.5L2977,937Z"/>
                                        </g>
                                    </g>
                                </g>
                                <path d="M3090,1013L3120,1003.5L3146,1017L3141,1048L3087,1112L3057,1136L2973,1153L3041,1085L3090,1013Z" style="fill:rgb(240,194,123);"/>
                                <clipPath id="_clip6">
                                    <path d="M3090,1013L3120,1003.5L3146,1017L3141,1048L3087,1112L3057,1136L2973,1153L3041,1085L3090,1013Z"/>
                                </clipPath>
                                <g clip-path="url(#_clip6)">
                                    <path d="M3011,1162L2960,1162L2981.5,1112.54L2999,1120L3125,1107.51L3127,1134L3011,1162Z" style="fill:rgb(180,91,62);"/>
                                    <path d="M3047,1061L3126,1087L3136,1067L3050,1046L3047,1061Z" style="fill:rgb(255,247,200);"/>
                                    <path d="M3057,1034L3144,1058.09L3154,1025.5L3073,1017L3057,1034Z" style="fill:rgb(255,247,200);"/>
                                </g>
                                <path d="M2808,1098L2829,1129.01L2866,1157L2915,1168L2996,1172L3066,1153L3098,1157L3103,1181L3050,1210L2932.5,1225L2814,1216L2783,1200L2781,1164L2790,1153L2779,1147L2769,1129.01L2774,1107L2808,1098Z" style="fill:rgb(227,234,247);"/>
                                <clipPath id="_clip7">
                                    <path d="M2808,1098L2829,1129.01L2866,1157L2915,1168L2996,1172L3066,1153L3098,1157L3103,1181L3050,1210L2932.5,1225L2814,1216L2783,1200L2781,1164L2790,1153L2779,1147L2769,1129.01L2774,1107L2808,1098Z"/>
                                </clipPath>
                                <g clip-path="url(#_clip7)">
                                    <g transform="matrix(1,0,0,1,-1.48866,-1.13687e-13)">
                                        <path d="M2774,1162L2839,1203L2968,1216L3070,1213L3035,1249L2783,1237L2774,1162Z" style="fill:rgb(116,116,185);"/>
                                    </g>
                                </g>
                                <path d="M2127,1153L2752,1147L2761,1157L2754,1169L2754,1197L2769,1216L2170,1197L2127,1153Z" style="fill:rgb(227,234,247);"/>
                                <clipPath id="_clip8">
                                    <path d="M2127,1153L2752,1147L2761,1157L2754,1169L2754,1197L2769,1216L2170,1197L2127,1153Z"/>
                                </clipPath>
                                <g clip-path="url(#_clip8)">
                                    <g transform="matrix(1,0,0,1,-509.278,-389.507)">
                                        <path d="M2632.4,1517.01L2895.4,1517.01L3084.03,1536.88L2941.4,1545L2946.4,1550L3038.4,1562L3033.96,1572.17L2889.4,1585L2986.4,1606L2630.4,1625L2632.4,1517.01ZM2845.4,1545L2859.9,1546.74L2934.4,1550L2927.4,1545L2845.4,1545ZM3046,1563L3081.4,1566L3091.16,1569L3042,1572.01L3046,1563Z" style="fill:rgb(116,116,185);"/>
                                    </g>
                                </g>
                            </g>
                        </g>
                        <g transform="matrix(2.06667,0,0,1.96923,-3622.07,-781.862)">
                            <path d="M1948,746L1949,807L1940,857L1964,893L1983.3,887.151L1965,909.25L1968,957L2022,969L2057,959L2082.9,912.059L2088,887L2165,850L2162,822L2117,824L2088,833L2091,801L2050,802L2049,792L2026,797.229L2014,783.229L2001,784.229L2000,724L1948,746Z"/>
                            <clipPath id="_clip9">
                                <path d="M1948,746L1949,807L1940,857L1964,893L1983.3,887.151L1965,909.25L1968,957L2022,969L2057,959L2082.9,912.059L2088,887L2165,850L2162,822L2117,824L2088,833L2091,801L2050,802L2049,792L2026,797.229L2014,783.229L2001,784.229L2000,724L1948,746Z"/>
                            </clipPath>
                            <g clip-path="url(#_clip9)">
                                <path d="M1968,753L1985,746L1985,803L2000,803L2012.93,820L2016,848L2004,865L1978,872L1966,858L1987,858L1997,851L2000,821L1982.5,821.458L1976,847L1961,848L1967,813L1968,753ZM2024,819L2039,813L2041,846L2049,851L2056,821L2072,822L2064,895L2040,940L2016,946L1991,940L1988.5,915L2010,888L2036,876L2037,889L2012.93,914L2010,926.5L2025,931L2037,914L2047,888L2047,866L2029,856L2024,819ZM2078,857L2117,842L2146,839L2125,851L2076,874L2078,857Z" style="fill:rgb(240,194,123);"/>
                                <clipPath id="_clip10">
                                    <path d="M1968,753L1985,746L1985,803L2000,803L2012.93,820L2016,848L2004,865L1978,872L1966,858L1987,858L1997,851L2000,821L1982.5,821.458L1976,847L1961,848L1967,813L1968,753ZM2024,819L2039,813L2041,846L2049,851L2056,821L2072,822L2064,895L2040,940L2016,946L1991,940L1988.5,915L2010,888L2036,876L2037,889L2012.93,914L2010,926.5L2025,931L2037,914L2047,888L2047,866L2029,856L2024,819ZM2078,857L2117,842L2146,839L2125,851L2076,874L2078,857Z"/>
                                </clipPath>
                                <g clip-path="url(#_clip10)">
                                    <path d="M1936,851L1988,850L2016,858L2083.85,849L2083.85,877L2038,953L1945,940L1936,851Z" style="fill:rgb(180,91,62);"/>
                                    <path d="M1944,810L2152,857L2159,827L1940,789L1944,810Z" style="fill:rgb(255,247,200);"/>
                                </g>
                            </g>
                        </g>
                    </g>
                </g>
            </g>
        </g>
    </g>
</svg>
