<?xml version="1.0" encoding="UTF-8" standalone="no"?>
<!DOCTYPE svg PUBLIC "-//W3C//DTD SVG 1.1//EN" "http://www.w3.org/Graphics/SVG/1.1/DTD/svg11.dtd">
<svg width="100%" height="100%" viewBox="0 0 228 4" version="1.1" xmlns="http://www.w3.org/2000/svg" xmlns:xlink="http://www.w3.org/1999/xlink" xml:space="preserve" xmlns:serif="http://www.serif.com/" style="fill-rule:evenodd;clip-rule:evenodd;stroke-linejoin:round;stroke-miterlimit:2;">
    <g transform="matrix(0.235537,0,0,0.2,0.942149,-13.8)">
        <rect id="Artboard2" x="-4" y="69" width="968" height="20" style="fill:none;"/>
        <clipPath id="_clip1">
            <rect id="Artboard21" serif:id="Artboard2" x="-4" y="69" width="968" height="20"/>
        </clipPath>
        <g clip-path="url(#_clip1)">
            <g transform="matrix(4.24561,0,0,5,-4,-15.9275)">
                <path d="M19,20.986L20,16.986L209,16.986L208,20.986L19,20.986Z" style="fill:rgb(66,67,103);"/>
            </g>
            <g transform="matrix(4.24561,0,0,5,-4,69)">
                <path d="M16,4L17,0L8,0L7,4L16,4Z" style="fill:rgb(66,67,103);"/>
            </g>
            <g transform="matrix(4.24561,0,0,5,-4,69)">
                <path d="M4,4L5,0L1,0L-0,4L4,4Z" style="fill:rgb(66,67,103);"/>
            </g>
            <g transform="matrix(4.24561,0,0,5,3426.46,69)">
                <path d="M-588,4L-587,0L-596,0L-597,4L-588,4Z" style="fill:rgb(66,67,103);"/>
            </g>
            <g transform="matrix(4.24561,0,0,5,3511.37,69)">
                <path d="M-601,4L-600,0L-604,0L-605,4L-601,4Z" style="fill:rgb(66,67,103);"/>
            </g>
        </g>
    </g>
</svg>
