<?xml version="1.0" encoding="UTF-8" standalone="no"?>
<!DOCTYPE svg PUBLIC "-//W3C//DTD SVG 1.1//EN" "http://www.w3.org/Graphics/SVG/1.1/DTD/svg11.dtd">
<svg width="100%" height="100%" viewBox="0 0 832 4" version="1.1" xmlns="http://www.w3.org/2000/svg" xmlns:xlink="http://www.w3.org/1999/xlink" xml:space="preserve" xmlns:serif="http://www.serif.com/" style="fill-rule:evenodd;clip-rule:evenodd;stroke-linejoin:round;stroke-miterlimit:2;">
    <g transform="matrix(0.859504,0,0,0.2,3.43802,-13.8)">
        <rect id="Artboard2" x="-4" y="69" width="968" height="20" style="fill:none;"/>
        <clipPath id="_clip1">
            <rect id="Artboard21" serif:id="Artboard2" x="-4" y="69" width="968" height="20"/>
        </clipPath>
        <g clip-path="url(#_clip1)">
            <g transform="matrix(1.16346,0,0,5,-4,-15.9275)">
                <path d="M19,20.986L20,16.986L813,16.986L812,20.986L19,20.986Z" style="fill:rgb(66,67,103);"/>
            </g>
            <g transform="matrix(1.16346,0,0,5,-4,69)">
                <path d="M16,4L17,0L8,0L7,4L16,4Z" style="fill:rgb(66,67,103);"/>
            </g>
            <g transform="matrix(1.16346,0,0,5,-4,69)">
                <path d="M4,4L5,0L1,0L-0,4L4,4Z" style="fill:rgb(66,67,103);"/>
            </g>
            <g transform="matrix(1.16346,0,0,5,936.077,69)">
                <path d="M16,4L17,0L8,0L7,4L16,4Z" style="fill:rgb(66,67,103);"/>
            </g>
            <g transform="matrix(1.16346,0,0,5,959.346,69)">
                <path d="M3,4L4,0L0,0L-1,4L3,4Z" style="fill:rgb(66,67,103);"/>
            </g>
        </g>
    </g>
</svg>
