<?xml version="1.0" encoding="UTF-8" standalone="no"?>
<!DOCTYPE svg PUBLIC "-//W3C//DTD SVG 1.1//EN" "http://www.w3.org/Graphics/SVG/1.1/DTD/svg11.dtd">
<svg width="100%" height="100%" viewBox="0 0 260 68" version="1.1" xmlns="http://www.w3.org/2000/svg" xmlns:xlink="http://www.w3.org/1999/xlink" xml:space="preserve" xmlns:serif="http://www.serif.com/" style="fill-rule:evenodd;clip-rule:evenodd;stroke-linejoin:round;stroke-miterlimit:2;">
    <g transform="matrix(0.268595,0,0,3.4,1.07438,-234.6)">
        <rect id="Artboard2" x="-4" y="69" width="968" height="20" style="fill:none;"/>
        <clipPath id="_clip1">
            <rect id="Artboard21" serif:id="Artboard2" x="-4" y="69" width="968" height="20"/>
        </clipPath>
        <g clip-path="url(#_clip1)">
            <g transform="matrix(3.72308,0,0,0.294118,-18.8923,64.8824)">
                <path d="M4,34L10,20L24,14L244,14L258,20L264,34L264,62L258,76L244,82L24,82L10,76L4,62L4,34Z" style="fill:rgb(88,71,244);"/>
                <clipPath id="_clip2">
                    <path d="M4,34L10,20L24,14L244,14L258,20L264,34L264,62L258,76L244,82L24,82L10,76L4,62L4,34Z"/>
                </clipPath>
                <g clip-path="url(#_clip2)">
                    <path d="M12,34L16,26L26,22L242,22L252,26L256,34L256,62L252,70L242,74L26,74L16,70L12,62L12,34Z" style="fill:rgb(88,101,242);"/>
                    <clipPath id="_clip3">
                        <path d="M12,34L16,26L26,22L242,22L252,26L256,34L256,62L252,70L242,74L26,74L16,70L12,62L12,34Z"/>
                    </clipPath>
                    <g clip-path="url(#_clip3)">
                        <g transform="matrix(5.71504,0,0,5.71504,2278.81,1587.92)">
                            <path d="M-397.864,-263.502L-390.441,-267.787L-397.864,-272.072L-397.864,-263.502Z" style="fill:rgb(215,0,5);fill-rule:nonzero;"/>
                        </g>
                        <g transform="matrix(5.71504,0,0,5.71504,2337.69,1566.56)">
                            <path d="M-397.864,-263.502L-390.441,-267.787L-397.864,-272.072L-397.864,-263.502Z" style="fill:rgb(215,0,5);fill-rule:nonzero;"/>
                        </g>
                        <g transform="matrix(5.71504,0,0,5.71504,2386.6,1599.56)">
                            <path d="M-397.864,-263.502L-390.441,-267.787L-397.864,-272.072L-397.864,-263.502Z" style="fill:rgb(215,0,5);fill-rule:nonzero;"/>
                        </g>
                        <g transform="matrix(5.71504,0,0,5.71504,2440.56,1568.9)">
                            <path d="M-397.864,-263.502L-390.441,-267.787L-397.864,-272.072L-397.864,-263.502Z" style="fill:rgb(215,0,5);fill-rule:nonzero;"/>
                        </g>
                        <g transform="matrix(5.71504,0,0,5.71504,2495.39,1585.08)">
                            <path d="M-397.864,-263.502L-390.441,-267.787L-397.864,-272.072L-397.864,-263.502Z" style="fill:rgb(215,0,5);fill-rule:nonzero;"/>
                        </g>
                    </g>
                    <g transform="matrix(1,0,0,1,4,14)">
                        <path d="M4,20L9,9L21,4L239,4L251,9L256,20L256,48L251,59L239,64L21,64L9,59L4,48L4,20Z" style="fill:rgb(88,101,242);"/>
                        <clipPath id="_clip4">
                            <path d="M4,20L9,9L21,4L239,4L251,9L256,20L256,48L251,59L239,64L21,64L9,59L4,48L4,20Z"/>
                        </clipPath>
                        <g clip-path="url(#_clip4)">
                            <g transform="matrix(0.937165,0,0,0.937165,-42.3676,15.7701)">
                                <circle cx="50.645" cy="40.572" r="19.428" style="fill:rgb(88,71,244);"/>
                            </g>
                            <g transform="matrix(3.25344,0,0,3.25344,-152.889,-144.573)">
                                <circle cx="50.645" cy="40.572" r="19.428" style="fill:rgb(88,71,244);"/>
                            </g>
                            <g transform="matrix(0.937165,0,0,0.937165,32.8736,21.1216)">
                                <circle cx="50.645" cy="40.572" r="19.428" style="fill:rgb(88,71,244);"/>
                            </g>
                            <g transform="matrix(0.937165,0,0,0.937165,120.2,-34.0229)">
                                <circle cx="50.645" cy="40.572" r="19.428" style="fill:rgb(88,71,244);"/>
                            </g>
                            <g transform="matrix(3.7167,0,0,3.7167,44.557,-52.4433)">
                                <circle cx="50.645" cy="40.572" r="19.428" style="fill:rgb(88,71,244);"/>
                            </g>
                            <g transform="matrix(0.937165,0,0,0.937165,191.33,-17.8432)">
                                <circle cx="50.645" cy="40.572" r="19.428" style="fill:rgb(88,71,244);"/>
                            </g>
                        </g>
                    </g>
                    <g transform="matrix(1,0,0,1,4,14)">
                        <path d="M8,27L4,28L4,20L9,9L21,4L239,4L251,9L256,20L256,28L252,27L252,20L248,12L238,8L22,8L12,12L8,20L8,27Z" style="fill:rgb(169,192,249);"/>
                    </g>
                </g>
            </g>
            <g transform="matrix(1.49089,0,0,0.117778,385.224,73.8086)">
                <g id="图层_2">
                    <g id="Discord_Logos">
                        <g id="Discord_Logo_-_Large_-_White">
                            <path d="M107.7,8.07C99.347,4.246 90.528,1.533 81.47,0C80.23,2.216 79.109,4.496 78.11,6.83C68.461,5.376 58.649,5.376 49,6.83C48.001,4.496 46.879,2.216 45.64,-0C36.576,1.546 27.752,4.265 19.39,8.09C2.79,32.65 -1.71,56.6 0.54,80.21C10.261,87.392 21.143,92.855 32.71,96.36C35.315,92.857 37.62,89.14 39.6,85.25C35.838,83.845 32.208,82.112 28.75,80.07C29.66,79.41 30.55,78.73 31.41,78.07C51.768,87.644 75.372,87.644 95.73,78.07C96.6,78.78 97.49,79.46 98.39,80.07C94.926,82.115 91.288,83.852 87.52,85.26C89.498,89.149 91.803,92.862 94.41,96.36C105.987,92.869 116.877,87.409 126.6,80.22C129.24,52.84 122.09,29.11 107.7,8.07ZM42.45,65.69C36.18,65.69 31,60 31,53C31,46 36,40.26 42.43,40.26C48.86,40.26 54,46 53.89,53C53.78,60 48.84,65.69 42.45,65.69ZM84.69,65.69C78.41,65.69 73.25,60 73.25,53C73.25,46 78.25,40.26 84.69,40.26C91.13,40.26 96.23,46 96.12,53C96.01,60 91.08,65.69 84.69,65.69Z" style="fill:white;fill-rule:nonzero;"/>
                        </g>
                    </g>
                </g>
            </g>
        </g>
    </g>
</svg>
