<?xml version="1.0" encoding="UTF-8" standalone="no"?>
<!DOCTYPE svg PUBLIC "-//W3C//DTD SVG 1.1//EN" "http://www.w3.org/Graphics/SVG/1.1/DTD/svg11.dtd">
<svg width="100%" height="100%" viewBox="0 0 260 68" version="1.1" xmlns="http://www.w3.org/2000/svg" xmlns:xlink="http://www.w3.org/1999/xlink" xml:space="preserve" xmlns:serif="http://www.serif.com/" style="fill-rule:evenodd;clip-rule:evenodd;stroke-linejoin:round;stroke-miterlimit:2;">
    <g transform="matrix(0.268595,0,0,3.4,1.07438,-234.6)">
        <rect id="Artboard2" x="-4" y="69" width="968" height="20" style="fill:none;"/>
        <clipPath id="_clip1">
            <rect id="Artboard21" serif:id="Artboard2" x="-4" y="69" width="968" height="20"/>
        </clipPath>
        <g clip-path="url(#_clip1)">
            <g transform="matrix(3.72308,0,0,0.294118,-18.8923,64.8824)">
                <path d="M4,34L10,20L24,14L244,14L258,20L264,34L264,62L258,76L244,82L24,82L10,76L4,62L4,34Z" style="fill:rgb(0,130,243);"/>
                <clipPath id="_clip2">
                    <path d="M4,34L10,20L24,14L244,14L258,20L264,34L264,62L258,76L244,82L24,82L10,76L4,62L4,34Z"/>
                </clipPath>
                <g clip-path="url(#_clip2)">
                    <g transform="matrix(1,0,0,1,4,14)">
                        <path d="M4,20L9,9L21,4L239,4L251,9L256,20L256,48L251,59L239,64L21,64L9,59L4,48L4,20Z" style="fill:rgb(29,155,240);"/>
                        <clipPath id="_clip3">
                            <path d="M4,20L9,9L21,4L239,4L251,9L256,20L256,48L251,59L239,64L21,64L9,59L4,48L4,20Z"/>
                        </clipPath>
                        <g clip-path="url(#_clip3)">
                            <g transform="matrix(0.990461,-0.137796,0.137796,0.990461,-66.6998,8.94581)">
                                <rect x="69" y="46.141" width="34.859" height="34.859" style="fill:rgb(0,130,243);"/>
                            </g>
                            <g transform="matrix(3.30731,-0.460124,0.460124,3.30731,-353.1,-168.143)">
                                <rect x="69" y="46.141" width="34.859" height="34.859" style="fill:rgb(0,130,243);"/>
                            </g>
                            <g transform="matrix(0.990461,-0.137796,0.137796,0.990461,-18.4388,-35.9967)">
                                <rect x="69" y="46.141" width="34.859" height="34.859" style="fill:rgb(0,130,243);"/>
                            </g>
                            <g transform="matrix(0.990461,-0.137796,0.137796,0.990461,80.9064,3.33367)">
                                <rect x="69" y="46.141" width="34.859" height="34.859" style="fill:rgb(0,130,243);"/>
                            </g>
                            <g transform="matrix(3.05548,-0.425089,0.425089,3.05548,-5.10691,-107.832)">
                                <rect x="69" y="46.141" width="34.859" height="34.859" style="fill:rgb(0,130,243);"/>
                            </g>
                            <g transform="matrix(0.990461,-0.137796,0.137796,0.990461,130.97,-43.0542)">
                                <rect x="69" y="46.141" width="34.859" height="34.859" style="fill:rgb(0,130,243);"/>
                            </g>
                        </g>
                    </g>
                    <g transform="matrix(1,0,0,1,4,14)">
                        <path d="M8,27L4,28L4,20L9,9L21,4L239,4L251,9L256,20L256,28L252,27L252,20L248,12L238,8L22,8L12,12L8,20L8,27Z" style="fill:rgb(146,212,242);"/>
                    </g>
                </g>
            </g>
            <g transform="matrix(0.774598,0,0,0.0611921,383.892,73.2538)">
                <path d="M221.95,51.29C222.1,53.46 222.1,55.63 222.1,57.82C222.1,124.55 171.3,201.51 78.41,201.51L78.41,201.47C50.97,201.51 24.1,193.65 1,178.83C4.99,179.31 9,179.55 13.02,179.56C35.76,179.58 57.85,171.95 75.74,157.9C54.13,157.49 35.18,143.4 28.56,122.83C36.13,124.29 43.93,123.99 51.36,121.96C27.8,117.2 10.85,96.5 10.85,72.46L10.85,71.82C17.87,75.73 25.73,77.9 33.77,78.14C11.58,63.31 4.74,33.79 18.14,10.71C43.78,42.26 81.61,61.44 122.22,63.47C118.15,45.93 123.71,27.55 136.83,15.22C157.17,-3.9 189.16,-2.92 208.28,17.41C219.59,15.18 230.43,11.03 240.35,5.15C236.58,16.84 228.69,26.77 218.15,33.08C228.16,31.9 237.94,29.22 247.15,25.13C240.37,35.29 231.83,44.14 221.95,51.29Z" style="fill:white;fill-rule:nonzero;"/>
            </g>
        </g>
    </g>
</svg>
