<?xml version="1.0" encoding="UTF-8" standalone="no"?>
<!DOCTYPE svg PUBLIC "-//W3C//DTD SVG 1.1//EN" "http://www.w3.org/Graphics/SVG/1.1/DTD/svg11.dtd">
<svg width="100%" height="100%" viewBox="0 0 260 68" version="1.1" xmlns="http://www.w3.org/2000/svg" xmlns:xlink="http://www.w3.org/1999/xlink" xml:space="preserve" xmlns:serif="http://www.serif.com/" style="fill-rule:evenodd;clip-rule:evenodd;stroke-linejoin:round;stroke-miterlimit:2;">
    <g transform="matrix(0.268595,0,0,3.4,1.07438,-234.6)">
        <rect id="Artboard2" x="-4" y="69" width="968" height="20" style="fill:none;"/>
        <clipPath id="_clip1">
            <rect id="Artboard21" serif:id="Artboard2" x="-4" y="69" width="968" height="20"/>
        </clipPath>
        <g clip-path="url(#_clip1)">
            <g transform="matrix(3.72308,0,0,0.294118,-18.8923,64.8824)">
                <path d="M4,34L10,20L24,14L244,14L258,20L264,34L264,62L258,76L244,82L24,82L10,76L4,62L4,34Z" style="fill:rgb(158,0,20);"/>
                <clipPath id="_clip2">
                    <path d="M4,34L10,20L24,14L244,14L258,20L264,34L264,62L258,76L244,82L24,82L10,76L4,62L4,34Z"/>
                </clipPath>
                <g clip-path="url(#_clip2)">
                    <path d="M12,34L16,26L26,22L242,22L252,26L256,34L256,62L252,70L242,74L26,74L16,70L12,62L12,34Z" style="fill:rgb(255,0,0);"/>
                    <clipPath id="_clip3">
                        <path d="M12,34L16,26L26,22L242,22L252,26L256,34L256,62L252,70L242,74L26,74L16,70L12,62L12,34Z"/>
                    </clipPath>
                    <g clip-path="url(#_clip3)">
                        <g transform="matrix(10.6075,0,0,10.6075,4206.2,2898.07)">
                            <path d="M-397.864,-263.502L-390.441,-267.787L-397.864,-272.072L-397.864,-263.502Z" style="fill:rgb(215,0,5);fill-rule:nonzero;"/>
                        </g>
                        <g transform="matrix(3.9673,0,0,3.9673,1626.32,1093.39)">
                            <path d="M-397.864,-263.502L-390.441,-267.787L-397.864,-272.072L-397.864,-263.502Z" style="fill:rgb(215,0,5);fill-rule:nonzero;"/>
                        </g>
                        <g transform="matrix(10.6075,0,0,10.6075,4444.99,2862.56)">
                            <path d="M-397.864,-263.502L-390.441,-267.787L-397.864,-272.072L-397.864,-263.502Z" style="fill:rgb(215,0,5);fill-rule:nonzero;"/>
                        </g>
                        <g transform="matrix(3.9673,0,0,3.9673,1785.21,1136.39)">
                            <path d="M-397.864,-263.502L-390.441,-267.787L-397.864,-272.072L-397.864,-263.502Z" style="fill:rgb(215,0,5);fill-rule:nonzero;"/>
                        </g>
                        <g transform="matrix(3.9673,0,0,3.9673,1664.21,1136.39)">
                            <path d="M-397.864,-263.502L-390.441,-267.787L-397.864,-272.072L-397.864,-263.502Z" style="fill:rgb(215,0,5);fill-rule:nonzero;"/>
                        </g>
                        <g transform="matrix(3.9673,0,0,3.9673,1746.21,1091.45)">
                            <path d="M-397.864,-263.502L-390.441,-267.787L-397.864,-272.072L-397.864,-263.502Z" style="fill:rgb(215,0,5);fill-rule:nonzero;"/>
                        </g>
                    </g>
                    <g transform="matrix(1,0,0,1,4,14)">
                        <path d="M4,20L9,9L21,4L239,4L251,9L256,20L256,48L251,59L239,64L21,64L9,59L4,48L4,20ZM8,20L8,48L12,56L22,60L238,60L248,56L252,48L252,20L248,12L238,8L22,8L12,12L8,20Z" style="fill:rgb(255,176,176);"/>
                    </g>
                </g>
            </g>
            <g transform="matrix(3.33816,0,0,0.26371,300.567,67.3968)">
                <path d="M80.957,30.332C82.139,34.759 82.144,44 82.144,44C82.144,44 82.144,53.241 80.957,57.668C80.302,60.112 78.381,62.034 75.936,62.688C71.51,63.875 53.752,63.875 53.752,63.875C53.752,63.875 35.994,63.875 31.568,62.688C29.123,62.034 27.202,60.112 26.548,57.668C25.36,53.241 25.36,44 25.36,44C25.36,44 25.36,34.759 26.548,30.332C27.202,27.888 29.123,25.967 31.568,25.312C35.994,24.125 53.752,24.125 53.752,24.125C53.752,24.125 71.51,24.125 75.936,25.312C78.381,25.967 80.302,27.888 80.957,30.332ZM48.068,52.517L62.82,44.001L48.068,35.484L48.068,52.517Z" style="fill:white;fill-rule:nonzero;"/>
            </g>
        </g>
    </g>
</svg>
